<?xml version="1.0" encoding="UTF-8" standalone="no"?>
<svg
   xmlns:dc="http://purl.org/dc/elements/1.1/"
   xmlns:cc="http://creativecommons.org/ns#"
   xmlns:rdf="http://www.w3.org/1999/02/22-rdf-syntax-ns#"
   xmlns:svg="http://www.w3.org/2000/svg"
   xmlns="http://www.w3.org/2000/svg"
   xmlns:sodipodi="http://sodipodi.sourceforge.net/DTD/sodipodi-0.dtd"
   xmlns:inkscape="http://www.inkscape.org/namespaces/inkscape"
   id="Layer_1"
   data-name="Layer 1"
   viewBox="0 0 249.88 41.81"
   version="1.1"
   sodipodi:docname="ezoom-light.svg"
   inkscape:version="1.0.2 (e86c870879, 2021-01-15)">
  <metadata
     id="metadata21">
    <rdf:RDF>
      <cc:Work
         rdf:about="">
        <dc:format>image/svg+xml</dc:format>
        <dc:type
           rdf:resource="http://purl.org/dc/dcmitype/StillImage" />
      </cc:Work>
    </rdf:RDF>
  </metadata>
  <sodipodi:namedview
     pagecolor="#ffffff"
     bordercolor="#666666"
     borderopacity="1"
     objecttolerance="10"
     gridtolerance="10"
     guidetolerance="10"
     inkscape:pageopacity="0"
     inkscape:pageshadow="2"
     inkscape:window-width="1366"
     inkscape:window-height="717"
     id="namedview19"
     showgrid="false"
     inkscape:zoom="4.6702416"
     inkscape:cx="124.94"
     inkscape:cy="12.340133"
     inkscape:window-x="0"
     inkscape:window-y="27"
     inkscape:window-maximized="1"
     inkscape:current-layer="Layer_1" />
  <defs
     id="defs2" />
  <title
     id="title4">Logo Ezoom</title>
  <path
     d="M132.25,57.17c-6.42,0-11.82-5-11.82-12.45s5.4-12.45,11.82-12.45,11.9,5.09,11.9,12.45-5.4,12.45-11.9,12.45m0-33.35c-12.13,0-21.84,8.69-21.84,20.9s9.71,20.9,21.84,20.9,21.92-8.61,21.92-20.9-9.71-20.9-21.92-20.9"
     transform="translate(-28.11 -23.82)"
     id="path6"
     style="fill:#ffffff" />
  <path
     d="M180.28,57.17c-6.42,0-11.83-5-11.83-12.45s5.41-12.45,11.83-12.45,11.9,5.09,11.9,12.45-5.41,12.45-11.9,12.45m0-33.35c-12.14,0-21.85,8.69-21.85,20.9s9.71,20.9,21.85,20.9S202.2,57,202.2,44.72s-9.71-20.9-21.92-20.9"
     transform="translate(-28.11 -23.82)"
     id="path8"
     style="fill:#ffffff" />
  <path
     class="cls-1"
     d="M272.23,53.65A5.75,5.75,0,1,0,278,59.4a5.76,5.76,0,0,0-5.75-5.75"
     transform="translate(-28.11 -23.82)"
     id="path10"
     style="fill:#ffffff" />
  <path
     d="M55.47,39.72H39.12a.48.48,0,0,1-.4-.59,9.54,9.54,0,0,1,9.66-7.6c3.95,0,7.16,3.15,7.5,7.69a.48.48,0,0,1-.41.5m-7.09-15.9c-12,0-20.27,8.61-20.27,20.9,0,11.35,8.22,20.9,21.45,20.9A24.66,24.66,0,0,0,63.9,61a2.37,2.37,0,0,0,.64-3.16L62.82,55a2.38,2.38,0,0,0-3.34-.78,17.18,17.18,0,0,1-9.22,3A11.64,11.64,0,0,1,38.35,46.75c0-.24.16-.75.4-.75H62.81a3,3,0,0,0,3.27-3v-.32c0-10.57-6.27-18.83-17.7-18.83"
     transform="translate(-28.11 -23.82)"
     id="path12"
     style="fill:#ffffff" />
  <path
     d="M104.5,51.71H98.8c-.91,0-1,1.06-1,2V54c0,1.18-1,1.76-2.1,1.76H86.2a1.25,1.25,0,0,1-1-2c.36-.47.79-1,1.28-1.61l16.88-20.93a5.19,5.19,0,0,0,1-3.47A3.39,3.39,0,0,0,101,24.3H75.63c-3.76,0-5.27,1.55-5.27,5.23v5.6c0,1,.33,1.73,1.3,1.73h5.9a1.34,1.34,0,0,0,1.36-1.38v-.69a2,2,0,0,1,2.19-1.92h8.2c.74,0,1.77.69.47,2.13-.57.61-18.58,22.7-18.58,22.7a4,4,0,0,0-.84,2.6v.05c0,2.09,1.23,3.92,3.32,3.92h27.47c3.68,0,5.18-1.71,5.18-5.46V53.74a2.11,2.11,0,0,0-1.83-2"
     transform="translate(-28.11 -23.82)"
     id="path14"
     style="fill:#ffffff" />
  <path
     d="M242.74,23.82A16.05,16.05,0,0,0,232,28a14.28,14.28,0,0,0-10.15-4.14A15.4,15.4,0,0,0,206.46,39V62a2.86,2.86,0,0,0,2.85,2.85h3.43A2.86,2.86,0,0,0,215.6,62V39c0-2.9,3.14-5.53,6.33-5.53a5.56,5.56,0,0,1,5.66,5.39V62.24a2.85,2.85,0,0,0,2.85,2.85h3.43a2.86,2.86,0,0,0,2.85-2.85V39c0-2.9,3.15-5.53,6.34-5.53a5.55,5.55,0,0,1,5.65,5.39V62a2.86,2.86,0,0,0,2.86,2.85H255A2.86,2.86,0,0,0,257.85,62V38.89a14.93,14.93,0,0,0-15.11-15.07"
     transform="translate(-28.11 -23.82)"
     id="path16"
     style="fill:#ffffff" />
</svg>
