<svg id="Camada_x0020_1" xmlns="http://www.w3.org/2000/svg" width="19.512" height="20.566" viewBox="0 0 19.512 20.566">
  <path id="Caminho_659" data-name="Caminho 659" d="M9.75,1.237a2.063,2.063,0,0,0-.818.187,1.883,1.883,0,0,0-.6.446L1.666,8.537a1.4,1.4,0,0,0-.432.613,4.983,4.983,0,0,0,1.928.161v9.881c0,.093.028.121.121.121H6.738V13.368A1.213,1.213,0,0,1,8.1,12.082H11.4a1.385,1.385,0,0,1,.993.332,1.256,1.256,0,0,1,.372.953v5.945h3.454c.093,0,.121-.028.121-.121V9.311a4.983,4.983,0,0,0,1.928-.161,3.527,3.527,0,0,0-.934-1.115L11.186,1.889A1.925,1.925,0,0,0,9.75,1.237Zm.2-1.245h-.4A3.159,3.159,0,0,0,7.845.616c-.545.412-5.723,5.645-6.8,6.735-.764.772-1.675,2.037-.428,2.86a2.973,2.973,0,0,0,1.262.385c0,2.765-.032,5.686,0,8.437a1.43,1.43,0,0,0,1.247,1.525h4.9v-7.19h3.454v7.19h4.9a1.434,1.434,0,0,0,1.247-1.565V10.6c.895-.074,1.888-.5,1.888-1.446,0-.9-1.339-2.082-1.978-2.721-.762-.762-5.273-5.36-5.9-5.829a3.115,3.115,0,0,0-1.68-.608Z" transform="translate(0 0.008)" fill="#ef7d00" fill-rule="evenodd"/>
</svg>
