<svg width="27" height="27" viewBox="0 0 27 27" fill="none" xmlns="http://www.w3.org/2000/svg">
<path d="M19.125 2.25H7.875C4.7684 2.25 2.25 4.7684 2.25 7.875V19.125C2.25 22.2316 4.7684 24.75 7.875 24.75H19.125C22.2316 24.75 24.75 22.2316 24.75 19.125V7.875C24.75 4.7684 22.2316 2.25 19.125 2.25Z" stroke="#EF7D00" stroke-width="2" stroke-linecap="round" stroke-linejoin="round"/>
<path d="M18 12.7911C18.1388 13.7274 17.9789 14.6836 17.543 15.5237C17.107 16.3639 16.4173 17.0452 15.5718 17.4707C14.7264 17.8963 13.7683 18.0444 12.8338 17.894C11.8993 17.7437 11.036 17.3024 10.3667 16.6332C9.69741 15.9639 9.2562 15.1006 9.10583 14.1661C8.95546 13.2316 9.10358 12.2735 9.52912 11.428C9.95467 10.5826 10.636 9.89281 11.4761 9.45687C12.3163 9.02094 13.2725 8.86101 14.2088 8.99985C15.1638 9.14147 16.048 9.5865 16.7307 10.2692C17.4134 10.9519 17.8584 11.8361 18 12.7911Z" stroke="#EF7D00" stroke-width="2" stroke-linecap="round" stroke-linejoin="round"/>
<path d="M19.6875 7.3125H19.6992" stroke="#EF7D00" stroke-width="2" stroke-linecap="round" stroke-linejoin="round"/>
</svg>
