<svg id="Icon_ionic-ios-mail" data-name="Icon ionic-ios-mail" xmlns="http://www.w3.org/2000/svg" width="10.239" height="7.088" viewBox="0 0 10.239 7.088">
  <path id="Caminho_3" data-name="Caminho 3" d="M13.53,10.329l-2.648,2.7a.048.048,0,0,0,0,.069l1.853,1.974a.319.319,0,0,1,0,.453.321.321,0,0,1-.453,0l-1.846-1.967a.051.051,0,0,0-.071,0l-.45.458a1.982,1.982,0,0,1-1.413.6A2.021,2.021,0,0,1,7.059,14l-.433-.441a.051.051,0,0,0-.071,0L4.709,15.522a.321.321,0,0,1-.453,0,.319.319,0,0,1,0-.453L6.109,13.1a.052.052,0,0,0,0-.069l-2.651-2.7a.049.049,0,0,0-.084.034v5.4a.79.79,0,0,0,.788.788h8.663a.79.79,0,0,0,.788-.788v-5.4A.049.049,0,0,0,13.53,10.329Z" transform="translate(-3.375 -9.46)" fill="#ff891d"/>
  <path id="Caminho_4" data-name="Caminho 4" d="M9.047,12.381a1.338,1.338,0,0,0,.962-.4l3.862-3.931a.774.774,0,0,0-.487-.172H4.713a.768.768,0,0,0-.487.172l3.862,3.931A1.338,1.338,0,0,0,9.047,12.381Z" transform="translate(-3.928 -7.875)" fill="#ff891d"/>
</svg>
