<svg id="Grupo_705" data-name="Grupo 705" xmlns="http://www.w3.org/2000/svg" width="8.642" height="8.642" viewBox="0 0 8.642 8.642">
  <path id="Caminho_283" data-name="Caminho 283" d="M7.948,5.672a4.906,4.906,0,0,1-1.541-.245.7.7,0,0,0-.685.144L4.751,6.3A5.37,5.37,0,0,1,2.336,3.891l.712-.946a.7.7,0,0,0,.172-.708A4.914,4.914,0,0,1,2.974.693.694.694,0,0,0,2.28,0H.693A.694.694,0,0,0,0,.693,7.957,7.957,0,0,0,7.948,8.642a.694.694,0,0,0,.693-.693V6.366A.694.694,0,0,0,7.948,5.672Z" fill="#ff891d"/>
</svg>
