<svg xmlns="http://www.w3.org/2000/svg" width="32" height="24" viewBox="0 0 32 24">
  <g id="Camada_x0020_1" transform="translate(4.156 -4.715)">
    <g id="_2563625034704" transform="translate(0 0.018)">
      <path id="Caminho_2666" data-name="Caminho 2666" d="M24.607,17.729l-.942-1.468a.924.924,0,0,1-.235-.774,1.207,1.207,0,0,1,2.41.112c0,.489-.573,1.124-.879,1.643A1.755,1.755,0,0,1,24.607,17.729ZM5.62,27.034a.858.858,0,0,0,.228,1.63l18.758.052a3.239,3.239,0,0,0,2.785-1.924,3.063,3.063,0,0,0-.019-2.636,2.815,2.815,0,0,0-.929-1.2,2.95,2.95,0,0,0-.851-.494c-1.169-.471-5.026-.166-6.706-.244a.925.925,0,0,1-.3-1.763,32.9,32.9,0,0,1,4.283-.089c.493,0,4.032.057,4.34-.032a.856.856,0,0,0,.146-1.6,2.98,2.98,0,0,0-1.236-.11c.672-1.27,1.717-1.993,1.369-3.667a2.921,2.921,0,0,0-5.518-.594c-.926,1.864.645,3.253,1.178,4.261H20.235a4.932,4.932,0,0,0-2.556.358,2.664,2.664,0,0,0,1.05,4.96c1.3.135,4.279-.1,5.821.008a1.541,1.541,0,0,1,.628,2.867,3.656,3.656,0,0,1-1.8.214S5.878,26.928,5.62,27.034Z" transform="translate(0 -0.018)" fill="#3a3a3a" fill-rule="evenodd"/>
      <g id="map-pin_1_" data-name="map-pin (1)" transform="translate(-6.156 4.698)">
        <path id="Caminho_2668" data-name="Caminho 2668" d="M21,10c0,7-9,13-9,13S3,17,3,10a9,9,0,1,1,18,0Z" fill="none" stroke="#3a3a3a" stroke-linecap="round" stroke-linejoin="round" stroke-width="2"/>
        <path id="Caminho_2669" data-name="Caminho 2669" d="M12,13a3,3,0,1,0-3-3A3,3,0,0,0,12,13Z" fill="none" stroke="#3a3a3a" stroke-linecap="round" stroke-linejoin="round" stroke-width="2"/>
      </g>
    </g>
  </g>
</svg>
