<svg width="27" height="27" viewBox="0 0 27 27" fill="none" xmlns="http://www.w3.org/2000/svg">
<path fill-rule="evenodd" clip-rule="evenodd" d="M24.5685 5.80433C24.9517 6.19939 25.2239 6.68859 25.3575 7.2225C25.7144 9.20104 25.8876 11.2083 25.875 13.2187C25.8821 15.1991 25.7089 17.176 25.3575 19.125C25.2239 19.6589 24.9517 20.1481 24.5685 20.5432C24.1853 20.9382 23.7046 21.2252 23.175 21.375C21.24 21.8925 13.5 21.8925 13.5 21.8925C13.5 21.8925 5.76003 21.8925 3.82503 21.375C3.3062 21.233 2.83275 20.9597 2.45044 20.5813C2.06812 20.2029 1.78985 19.7323 1.64253 19.215C1.28564 17.2365 1.1124 15.2292 1.12503 13.2187C1.11517 11.2233 1.28839 9.23125 1.64253 7.2675C1.77616 6.73359 2.04833 6.24439 2.43154 5.84933C2.81475 5.45427 3.29543 5.16733 3.82503 5.0175C5.76003 4.5 13.5 4.5 13.5 4.5C13.5 4.5 21.24 4.5 23.175 4.9725C23.7046 5.12233 24.1853 5.40927 24.5685 5.80433ZM17.4375 13.2187L10.9688 16.8975V9.53998L17.4375 13.2187Z" fill="#EF7D00"/>
</svg>
